PathFileType	4	(X/Y/Z)	C:\Users\Basilio\Documents\Thesis Gigler\squatting_fais\c3dfiles\044\SLS_front_pre4\markers_experimental.trc
DataRate	CameraRate	NumFrames	NumMarkers	Units	OrigDataRate	OrigDataStartFrame	OrigNumFrames
200.000000	200.000000	4	60	mm	200.000000	0	1293
Frame#	Time	FHD			LBHD			RBHD			C7			T10			LSHO			LUUPA			LMUPA			LDUPA			LLEP			LMEP			LUL			LRFIN			RSHO			RUPA1			RMUPA			RDUPA			RLEP			RMEP			RUL			LASI			RASI			USACR			LSACR			RSACR			LTHI1			LTHI2			LTHI3			LTHI4			LLFC			LMFC			LTIB1			LTIB2			LTIB3			LTIB4			LLMAL			LMMAL			LHEE			LMT1			LMT2			LMT5			RTHI			RTHI2			RTHI3			RTHI4			RLFC			RMFC			RTIB1			RTIB2			RTIB3			RTIB4			RLMAL			RHEE			RMT1			RMT2			RMT5			RUFIN			CLAV			LRAD			RMMAL			
		X1	Y1	Z1	X2	Y2	Z2	X3	Y3	Z3	X4	Y4	Z4	X5	Y5	Z5	X6	Y6	Z6	X7	Y7	Z7	X8	Y8	Z8	X9	Y9	Z9	X10	Y10	Z10	X11	Y11	Z11	X12	Y12	Z12	X13	Y13	Z13	X14	Y14	Z14	X15	Y15	Z15	X16	Y16	Z16	X17	Y17	Z17	X18	Y18	Z18	X19	Y19	Z19	X20	Y20	Z20	X21	Y21	Z21	X22	Y22	Z22	X23	Y23	Z23	X24	Y24	Z24	X25	Y25	Z25	X26	Y26	Z26	X27	Y27	Z27	X28	Y28	Z28	X29	Y29	Z29	X30	Y30	Z30	X31	Y31	Z31	X32	Y32	Z32	X33	Y33	Z33	X34	Y34	Z34	X35	Y35	Z35	X36	Y36	Z36	X37	Y37	Z37	X38	Y38	Z38	X39	Y39	Z39	X40	Y40	Z40	X41	Y41	Z41	X42	Y42	Z42	X43	Y43	Z43	X44	Y44	Z44	X45	Y45	Z45	X46	Y46	Z46	X47	Y47	Z47	X48	Y48	Z48	X49	Y49	Z49	X50	Y50	Z50	X51	Y51	Z51	X52	Y52	Z52	X53	Y53	Z53	X54	Y54	Z54	X55	Y55	Z55	X56	Y56	Z56	X57	Y57	Z57	X58	Y58	Z58	X59	Y59	Z59	X60	Y60	Z60	

1	0	-255.9167785644532	1810.981201171875	-870.4126586914065	-384.6310424804689	1764.256225585938	-946.8890380859377	-424.1031799316407	1738.720336914063	-786.8717041015627	-423.5930480957032	1565.36767578125	-878.2336425781252	-395.240936279297	1262.3056640625	-876.2015380859377	-330.8183593750001	1597.306396484375	-1022.567810058594	-161.3639831542969	1584.700317382813	-1113.879272460938	-136.0894165039063	1595.504638671875	-1071.174194335938	-92.1520462036133	1582.96044921875	-1111.33935546875	-36.31482315063477	1584.123291015625	-1098.936645507813	-42.34447860717774	1508.388427734375	-1087.52978515625	215.5921173095704	1602.988891601563	-975.609558105469	230.3270721435547	1616.8544921875	-873.6649169921877	-339.2341308593751	1578.234619140625	-719.8295288085939	-179.2949829101563	1559.0419921875	-622.6340332031251	-152.2572479248047	1577.284423828125	-662.0716552734376	-110.0766525268555	1562.222900390625	-620.8121337890626	-49.55904769897462	1569.26123046875	-631.4622802734376	-48.30168533325197	1489.501831054688	-647.2904663085939	207.857650756836	1600.17529296875	-742.9945678710939	-212.2886962890626	1079.370483398438	-987.7124023437502	-199.5335540771485	1063.3232421875	-769.8809814453127	-376.9948425292969	1118.694091796875	-865.9885253906252	-382.8337707519532	1085.986694335938	-892.0906982421877	-378.1048889160157	1088.860961914063	-834.9578857421877	-318.9332580566407	844.0347900390627	-1062.715087890625	-288.8257751464844	764.9785766601564	-1066.019287109375	-240.6385192871094	765.2711791992189	-1059.8427734375	-318.6734619140626	713.4286499023439	-1053.195190429688	-310.4979858398438	553.0940551757814	-1046.333129882813	-296.6934814453126	540.1862792968751	-924.7823486328127	-284.9189453125001	374.3112792968751	-987.5193481445315	-312.3791198730469	332.4699096679688	-1060.929321289063	-281.5413208007813	328.9682617187501	-1025.678955078125	-294.1760864257813	248.8288269042969	-1001.618591308594	-344.6658325195313	133.3259429931641	-1054.23095703125	-323.7395019531251	138.1733093261719	-970.8659667968752	-408.8662109375001	112.7750396728516	-1006.807495117188	-202.730941772461	62.77006912231447	-985.306091308594	-200.9748687744141	64.29824066162111	-1032.413940429688	-238.1288299560547	51.5293426513672	-1078.851318359375	-300.1574707031251	795.9761962890627	-689.4198608398439	-260.8184814453126	740.1875000000001	-690.2298583984376	-229.4322357177735	741.9039916992189	-697.8051757812501	-289.5231323242188	661.4141235351564	-704.9888305664064	-297.4565124511719	545.6123657226564	-712.2132568359376	-310.8367309570313	538.7819824218751	-836.6387329101565	-259.6165771484376	415.9700622558595	-740.6616821289064	-328.0402832031251	347.2559509277344	-688.7406005859376	-287.6464233398438	339.1281433105469	-707.9075317382814	-280.4557189941407	288.0288391113282	-733.6111450195314	-347.8963623046876	136.9770050048828	-711.9537353515626	-409.8313293457032	110.8501281738282	-753.4190063476564	-206.931625366211	65.45919036865236	-787.8061523437502	-198.7837371826172	60.72128677368165	-751.5118408203126	-235.0847778320313	47.53751373291016	-696.1472167968751	nan	nan	nan	nan	nan	nan	nan	nan	nan	nan	nan	nan	
2	0.005	-255.9031677246094	1810.96728515625	-870.3854980468752	-384.7189025878907	1764.265625	-946.9875488281252	-424.0632324218751	1738.734985351563	-786.947937011719	-423.5777893066407	1565.37109375	-878.3043212890627	-395.266082763672	1262.309204101563	-876.250183105469	-330.7446899414063	1597.373046875	-1022.63232421875	-161.3370056152344	1584.683837890625	-1113.915283203125	-136.0165252685547	1595.519775390625	-1071.216918945313	-92.01966094970705	1582.98828125	-1111.341674804688	-36.24066925048829	1584.08447265625	-1098.9150390625	-42.34447860717774	1508.388427734375	-1087.52978515625	215.7086791992188	1602.905517578125	-975.649108886719	230.4120330810547	1616.798828125	-873.7120361328127	-339.1469421386719	1578.302978515625	-719.9405517578126	-179.334701538086	1559.083374023438	-622.7327880859376	-152.2361907958985	1577.313232421875	-662.1308593750001	-109.9903640747071	1562.243408203125	-620.9284057617189	-49.57153701782228	1569.256958007813	-631.5423583984376	-48.29362106323244	1489.487060546875	-647.3383178710939	207.8866729736329	1600.134765625	-743.0130004882814	-212.3323059082032	1079.40087890625	-987.730651855469	-199.5496673583985	1063.364868164063	-769.9067993164065	-377.0545043945313	1118.671264648438	-865.9840087890627	-382.8100585937501	1085.969482421875	-892.1235961914065	-378.1125488281251	1088.864135742188	-834.992370605469	-319.0211791992188	844.028259277344	-1062.719482421875	-288.8038330078126	764.9844970703126	-1066.056640625	-240.6169433593751	765.2692260742189	-1059.887573242188	-318.6728515625001	713.4371337890626	-1053.230346679688	-310.5425415039063	553.0806274414064	-1046.3681640625	-296.6631469726563	540.2144775390626	-924.7807617187502	-284.9176940917969	374.2821350097657	-987.540466308594	-312.3651428222657	332.4501037597657	-1060.92919921875	-281.5388183593751	328.9203796386719	-1025.740844726563	-294.1812744140626	248.7886810302735	-1001.648803710938	-344.5777587890626	133.3048248291016	-1054.237182617188	-323.7500915527344	138.1785736083985	-970.8597412109377	-408.4167480468751	111.5609359741211	-1006.330749511719	-202.7109069824219	62.7626075744629	-985.3265380859377	-200.9609985351563	64.30499267578126	-1032.3779296875	-238.0637817382813	51.5218963623047	-1078.880859375	-300.1579284667969	795.9787597656252	-689.4493408203126	-260.8501281738282	740.1873779296876	-690.2295532226564	-229.4546508789063	741.8869018554689	-697.8019409179689	-289.5442504882813	661.4123535156251	-704.9641113281251	-297.4770202636719	545.6403808593751	-712.2431640625001	-310.8385925292969	538.7902221679689	-836.667175292969	-259.6157531738282	415.9928283691407	-740.6624755859376	-328.0755004882813	347.2421875000001	-688.7355957031251	-287.6202697753907	339.1493530273438	-707.8891601562501	-280.4365844726563	288.0186157226563	-733.6303710937501	-347.9277954101563	137.0024871826172	-711.9206542968751	-409.8306579589845	110.847526550293	-753.4435424804689	-206.9220123291016	65.39378356933595	-787.741638183594	-198.7780151367188	60.72741699218751	-751.4816894531251	-235.1065521240235	47.5881462097168	-696.1415405273439	nan	nan	nan	nan	nan	nan	nan	nan	nan	nan	nan	nan	
3	0.01	-255.8959655761719	1810.950561523438	-870.421325683594	-384.5850524902345	1764.275390625	-947.0751953125002	-423.9986267089845	1738.763671875	-787.0639648437502	-423.5560302734376	1565.397827148438	-878.3758544921877	-395.2048950195314	1262.341552734375	-876.3525390625002	-330.6621093750001	1597.35107421875	-1022.788879394531	-161.1896057128907	1584.696899414063	-1113.9541015625	-135.8541564941407	1595.531127929688	-1071.240356445313	-91.97958374023439	1582.978881835938	-1111.335327148438	-36.23669815063477	1584.059692382813	-1098.914184570313	-42.32148742675782	1508.370727539063	-1087.50341796875	215.8069152832032	1602.8623046875	-975.6819458007815	230.6972961425782	1616.65869140625	-873.8502197265627	-339.1619262695313	1578.32568359375	-720.0360717773439	-179.2907257080078	1559.096313476563	-622.8537597656251	-152.2555389404297	1577.350708007813	-662.2199096679689	-109.8914108276367	1562.2646484375	-621.0589599609376	-49.55122375488283	1569.272338867188	-631.6393432617189	-48.28090667724611	1489.505737304688	-647.4048461914064	207.9031829833985	1600.0595703125	-743.1010131835939	-212.3667144775391	1079.394775390625	-987.7940673828127	-199.6182403564454	1063.33251953125	-769.951110839844	-376.9935607910157	1118.683349609375	-866.0246582031252	-382.8225097656251	1085.990966796875	-892.1226196289065	-378.1181335449219	1088.852905273438	-835.0020751953127	-319.0291137695313	844.0438232421877	-1062.727905273438	-288.8502197265626	764.9882812500001	-1066.067016601563	-240.6237182617188	765.2702026367189	-1059.927978515625	-318.6740417480469	713.4371337890626	-1053.268310546875	-310.4701232910157	553.0939331054689	-1046.373291015625	-296.6828613281251	540.2167968750001	-924.7922363281252	-284.8728942871094	374.2923889160157	-987.5452880859377	-312.3427429199219	332.4550476074219	-1060.966430664063	-281.5157165527344	328.9736633300782	-1025.715087890625	-294.1812744140626	248.7886810302735	-1001.648803710938	-344.6538391113282	133.3043670654297	-1054.20703125	-323.7309570312501	138.1674957275391	-970.8406372070315	-408.8002319335939	112.7214889526367	-1006.811157226563	-202.7174987792969	62.75603485107423	-985.3065185546877	-200.9734344482422	64.2835159301758	-1032.4189453125	-238.0908966064454	51.49084854125978	-1078.874389648438	-300.1625671386719	795.9856567382815	-689.4609375000001	-260.8342895507813	740.2417602539064	-690.2488403320314	-229.4792785644532	741.9102783203126	-697.8334350585939	-289.5153198242188	661.4238891601564	-704.9863281250001	-297.4770202636719	545.6403808593751	-712.2431640625001	-310.8611145019532	538.7735595703126	-836.6634521484377	-259.6047058105469	416.014129638672	-740.6473388671876	-328.0551147460938	347.2551269531251	-688.7470092773439	-287.6098022460938	339.1514892578126	-707.8955078125001	-280.4517211914063	288.0175170898438	-733.6146240234376	-347.8937072753907	136.9922027587891	-711.9506225585939	-409.8252258300782	110.8447723388672	-753.4534912109376	-206.9244079589844	65.45884704589845	-787.7843017578127	-198.7759399414063	60.7331886291504	-751.4724731445314	-235.1336669921876	47.59387207031251	-696.1018676757814	nan	nan	nan	nan	nan	nan	nan	nan	nan	nan	nan	nan	
4	0.015	-255.8621368408204	1810.9365234375	-870.429138183594	-384.3640136718751	1764.271850585938	-947.1699829101565	-423.9949645996095	1738.763549804688	-787.0864868164065	-423.1181030273439	1564.574340820313	-878.1094360351565	-395.259979248047	1262.349609375	-876.428405761719	-330.4804382324219	1597.356567382813	-1022.86279296875	-161.1031951904297	1584.699584960938	-1113.989624023438	-135.8337097167969	1595.4794921875	-1071.225830078125	-91.8134231567383	1582.923217773438	-1111.385864257813	-36.07523345947266	1584.034423828125	-1098.911010742188	-42.23084259033204	1508.405883789063	-1087.502807617188	215.9343261718751	1602.793090820313	-975.7119750976565	230.8240509033204	1616.631469726563	-873.8750000000002	-339.1341247558594	1578.372680664063	-720.1491699218751	-179.314193725586	1559.113159179688	-622.9683227539064	-152.2405090332032	1577.3740234375	-662.3184814453126	-109.8730773925782	1562.282470703125	-621.1250000000001	-49.51255798339845	1569.282470703125	-631.6998291015626	-48.21151351928712	1489.493408203125	-647.5350952148439	207.9358978271485	1600.012939453125	-743.1341552734376	-214.6130981445313	1078.767700195313	-986.4182128906252	-199.5698699951172	1063.3544921875	-770.001403808594	-377.0519409179688	1118.69091796875	-866.0718994140627	-382.8225097656251	1085.990966796875	-892.1226196289065	-378.1100463867188	1088.851318359375	-835.0344238281252	-318.9753417968751	844.0235595703127	-1062.747924804688	-288.8401794433594	764.9736938476564	-1066.091552734375	-240.6281127929688	765.2785034179689	-1059.96923828125	-318.5979003906251	713.4063110351564	-1053.281860351563	-310.4497070312501	553.1003417968751	-1046.42578125	-296.5903015136719	540.1980590820314	-924.8328247070315	-284.8843688964844	374.2830505371094	-987.550231933594	-312.2851257324219	332.4294128417969	-1060.946166992188	-281.4873962402344	328.9663391113282	-1025.753540039063	-294.0659179687501	248.8054351806641	-1001.639770507813	-344.6546630859376	133.304916381836	-1054.206909179688	-323.7583007812501	138.1801147460938	-970.830261230469	-408.8126525878907	112.7487182617188	-1006.810546875	-202.7398681640626	62.75513458251955	-985.357849121094	-200.9609985351563	64.30498504638673	-1032.3779296875	-238.0784759521485	51.53528976440431	-1078.870727539063	-300.1569824218751	795.9974365234377	-689.4602050781251	-260.7798461914063	740.2266235351564	-690.2514648437501	-229.4601593017579	741.9172363281251	-697.8397827148439	-289.4688110351563	661.4083251953126	-705.0422973632814	-297.4850463867188	545.6477050781251	-712.2525634765626	-310.8611145019532	538.7735595703126	-836.6634521484377	-259.6246948242188	416.017791748047	-740.6483154296876	-328.0596008300782	347.2707519531251	-688.7120971679689	-287.6146545410157	339.1686401367188	-707.8994750976564	-280.4464721679688	287.9971923828126	-733.6792602539064	-347.9308471679688	137.0192413330078	-711.9356079101564	-409.8308410644532	110.8475723266602	-753.4433593750001	-206.9364776611329	65.39986419677736	-787.7794189453127	-198.7793273925782	60.73009490966798	-751.4962158203126	-235.090805053711	47.56029510498048	-696.1488037109376	nan	nan	nan	nan	nan	nan	nan	nan	nan	nan	nan	nan	
